<?xml version="1.0" encoding="iso-8859-1"?>
<!-- Generator: Adobe Illustrator 19.0.0, SVG Export Plug-In . SVG Version: 6.00 Build 0)  -->
<svg version="1.1" id="Capa_1" xmlns="http://www.w3.org/2000/svg" xmlns:xlink="http://www.w3.org/1999/xlink" x="0px" y="0px"
	 viewBox="0 0 512 512" style="enable-background:new 0 0 512 512;" xml:space="preserve">
<path style="fill:#54E360;" d="M349.718,238.369c-3.676,5.95-10.058,9.507-17.05,9.507H305.72v246.463
	c0,9.737-7.924,17.661-17.661,17.661h-67.549c-9.737,0-17.661-7.924-17.661-17.661V247.886h-26.877
	c-7.022,0-13.414-3.576-17.09-9.567c-3.406-5.57-3.897-12.272-1.392-18.212l66.447-200.462l0.521-1.022
	c5.79-11.33,17.19-18.422,29.862-18.613C254.5,0,254.691,0,254.871,0h0.12c12.953,0.05,24.603,7.263,30.403,18.833l0.511,1.012
	l0.351,1.072l64.934,199.29C353.645,226.148,353.124,232.829,349.718,238.369z"/>
<g>
	<path style="fill:#D7E3FF;" d="M148.398,87.241L122.832,68.92c-6.745-4.834-16.132-3.286-20.967,3.461
		c-4.833,6.745-3.285,16.132,3.461,20.967l25.566,18.321c2.651,1.899,5.709,2.814,8.74,2.814c4.68,0,9.292-2.18,12.226-6.275
		C156.692,101.463,155.144,92.076,148.398,87.241z"/>
	<path style="fill:#D7E3FF;" d="M123.171,181.838l-58.606-19.635c-7.866-2.642-16.385,1.606-19.02,9.475
		c-2.637,7.868,1.606,16.385,9.475,19.02l58.606,19.635c1.583,0.531,3.193,0.782,4.775,0.782c6.282,0,12.14-3.972,14.246-10.257
		C135.282,192.99,131.04,184.473,123.171,181.838z"/>
	<path style="fill:#D7E3FF;" d="M119.764,298.479c0-8.299-6.728-15.026-15.026-15.026H38.16c-8.299,0-15.026,6.728-15.026,15.026
		s6.728,15.026,15.026,15.026h66.577C113.036,313.505,119.764,306.777,119.764,298.479z"/>
	<path style="fill:#D7E3FF;" d="M104.048,406.85l-37.129,11.74c-7.913,2.501-12.3,10.944-9.797,18.856
		c2.025,6.407,7.944,10.5,14.323,10.5c1.501,0,3.026-0.227,4.533-0.703l37.129-11.74c7.913-2.501,12.3-10.944,9.797-18.856
		C120.404,408.734,111.958,404.349,104.048,406.85z"/>
</g>
<g>
	<path style="fill:#B5BFF7;" d="M406.672,93.323c6.746-4.833,8.295-14.221,3.461-20.967c-4.834-6.746-14.222-8.298-20.967-3.461
		L363.6,87.216c-6.746,4.833-8.295,14.221-3.461,20.967c2.935,4.095,7.545,6.275,12.227,6.275c3.029,0,6.09-0.914,8.74-2.814
		L406.672,93.323z"/>
	<path style="fill:#B5BFF7;" d="M398.375,210.308l58.605-19.634c7.869-2.636,12.111-11.152,9.475-19.02
		c-2.636-7.87-11.153-12.116-19.02-9.475l-58.605,19.634c-7.869,2.636-12.111,11.153-9.475,19.02
		c2.106,6.286,7.963,10.257,14.246,10.257C395.183,211.09,396.792,210.839,398.375,210.308z"/>
	<path style="fill:#B5BFF7;" d="M473.84,283.426h-66.577c-8.299,0-15.026,6.728-15.026,15.026s6.728,15.026,15.026,15.026h66.577
		c8.299,0,15.026-6.728,15.026-15.026S482.138,283.426,473.84,283.426z"/>
	<path style="fill:#B5BFF7;" d="M445.08,418.565l-37.129-11.74c-7.911-2.507-16.355,1.885-18.856,9.797
		c-2.502,7.912,1.884,16.355,9.797,18.856l37.129,11.74c1.507,0.478,3.032,0.703,4.533,0.703c6.379,0,12.298-4.095,14.323-10.5
		C457.38,429.508,452.994,421.066,445.08,418.565z"/>
</g>
<path style="fill:#00CC71;" d="M349.718,238.369c-3.676,5.95-10.058,9.507-17.05,9.507H305.72v246.463
	c0,9.737-7.924,17.661-17.661,17.661H254.32V0.01C254.5,0,254.691,0,254.871,0h0.12c12.953,0.05,24.603,7.263,30.403,18.833
	l0.511,1.012l0.351,1.072l64.934,199.29C353.645,226.148,353.124,232.829,349.718,238.369z"/>
<g>
</g>
<g>
</g>
<g>
</g>
<g>
</g>
<g>
</g>
<g>
</g>
<g>
</g>
<g>
</g>
<g>
</g>
<g>
</g>
<g>
</g>
<g>
</g>
<g>
</g>
<g>
</g>
<g>
</g>
</svg>
